<?xml version="1.0" encoding="utf-8"?>
<!-- Generator: Adobe Illustrator 27.5.0, SVG Export Plug-In . SVG Version: 6.00 Build 0)  -->
<svg version="1.1" xmlns="http://www.w3.org/2000/svg" xmlns:xlink="http://www.w3.org/1999/xlink" x="0px" y="0px"
	 viewBox="0 0 700 500" style="enable-background:new 0 0 700 500;" xml:space="preserve">
<g id="Background_Simple">
	<g>
		<path style="fill:#92E3A9;" d="M617.812,346.687c0,0,27.372-140.341-47.194-219.968C504.796,56.43,400.584,29.092,315.639,87.215
			c-30.267,20.71-52.297,60.916-87.654,73.344c-39.643,13.935-90.613,18.911-127.425,78.631
			c-36.812,59.72-23.597,136.361,25.485,177.169c49.083,40.809,134.977,0.995,212.376-1.991
			C415.819,411.383,577.225,519.874,617.812,346.687z"/>
		<path style="opacity:0.7;fill:#FFFFFF;" d="M617.812,346.687c0,0,27.372-140.341-47.194-219.968
			C504.796,56.43,400.584,29.092,315.639,87.215c-30.267,20.71-52.297,60.916-87.654,73.344
			c-39.643,13.935-90.613,18.911-127.425,78.631c-36.812,59.72-23.597,136.361,25.485,177.169
			c49.083,40.809,134.977,0.995,212.376-1.991C415.819,411.383,577.225,519.874,617.812,346.687z"/>
	</g>
</g>
<g id="Plants">
	<g>
		<g>
			<g>
				<g>
					<path style="fill:#92E3A9;" d="M165.38,95.51c0,0,0-8.531-11.943-20.473c-11.943-11.943-19.62-18.767-19.62-18.767
						s-5.971,19.621,5.118,31.564c11.09,11.943,26.445,23.033,26.445,23.033V95.51z"/>
					<path style="fill:#92E3A9;" d="M148.047,148.787c0,0,0-8.531-11.943-20.474c-11.943-11.943-19.62-18.767-19.62-18.767
						s-5.972,19.621,5.118,31.564c11.09,11.943,26.445,23.032,26.445,23.032V148.787z"/>
					<path style="fill:#92E3A9;" d="M164.629,110.04c0,0,0.902-8.483,14.039-19.097c13.138-10.614,21.494-16.589,21.494-16.589
						s3.865,20.142-8.425,30.846c-12.29,10.704-28.731,20.11-28.731,20.11L164.629,110.04z"/>
					<path style="fill:#92E3A9;" d="M143.69,172.958c0,0,1.788-8.341,15.968-17.517c14.18-9.175,23.117-14.24,23.117-14.24
						s1.728,20.436-11.618,29.79c-13.346,9.354-30.684,16.98-30.684,16.98L143.69,172.958z"/>
					<path style="fill:#92E3A9;" d="M147.626,241.558c0,0,0-8.531,11.943-20.474c11.943-11.943,19.621-18.768,19.621-18.768
						s5.971,19.621-5.119,31.563c-11.09,11.943-26.445,23.033-26.445,23.033V241.558z"/>
					<path style="fill:#92E3A9;" d="M147.427,258.301c0,0,1.212-8.444-8.912-21.963c-10.124-13.519-16.755-21.365-16.755-21.365
						s-8.699,18.573,0.581,31.971c9.28,13.397,22.903,26.557,22.903,26.557L147.427,258.301z"/>
					<path style="fill:#92E3A9;" d="M135.651,307.925c0,0,0-8.53,11.943-20.473c11.943-11.943,19.621-18.767,19.621-18.767
						s5.971,19.62-5.118,31.563c-11.09,11.943-26.445,23.033-26.445,23.033V307.925z"/>
					<path style="fill:#92E3A9;" d="M143.626,352.916c0,0-2.161-8.252,6.368-22.831c8.528-14.579,14.227-23.125,14.227-23.125
						s10.746,17.469,3.043,31.831c-7.703,14.362-19.75,28.98-19.75,28.98L143.626,352.916z"/>
				</g>
				
					<path style="fill:none;stroke:#263238;stroke-width:1.2008;stroke-linecap:round;stroke-linejoin:round;stroke-miterlimit:10;" d="
					M166.462,93.324c-0.699,9.118-1.735,18.552-3.271,26.488c-4.721,24.392-16.523,40.129-21.244,62.16
					c-4.721,22.031,8.832,50.414,5.203,78.712c-3.63,28.298-14.645,44.035-11.498,62.919c3.147,18.884,19.671,70.028,19.671,70.028"
					/>
				
					<line style="fill:none;stroke:#263238;stroke-width:1.2008;stroke-linecap:round;stroke-linejoin:round;stroke-miterlimit:10;" x1="164.511" y1="115.709" x2="177.382" y2="105.832"/>
				
					<line style="fill:none;stroke:#263238;stroke-width:1.2008;stroke-linecap:round;stroke-linejoin:round;stroke-miterlimit:10;" x1="165.11" y1="104.336" x2="159.722" y2="94.758"/>
				
					<path style="fill:none;stroke:#263238;stroke-width:1.2008;stroke-linecap:round;stroke-linejoin:round;stroke-miterlimit:10;" d="
					M142.661,180.96c0,0,10.775-8.081,21.85-16.163"/>
				
					<path style="fill:none;stroke:#263238;stroke-width:1.2008;stroke-linecap:round;stroke-linejoin:round;stroke-miterlimit:10;" d="
					M148.047,164.141c0,0-8.977-17.603-19.154-29.276"/>
				
					<path style="fill:none;stroke:#263238;stroke-width:1.2008;stroke-linecap:round;stroke-linejoin:round;stroke-miterlimit:10;" d="
					M148.049,253.693c0,0,8.381-16.462,23.047-30.83"/>
				
					<path style="fill:none;stroke:#263238;stroke-width:1.2008;stroke-linecap:round;stroke-linejoin:round;stroke-miterlimit:10;" d="
					M145.954,265.666c0,0-5.388-12.87-11.673-22.149c-6.286-9.279-7.184-10.476-7.184-10.476"/>
				
					<path style="fill:none;stroke:#263238;stroke-width:1.2008;stroke-linecap:round;stroke-linejoin:round;stroke-miterlimit:10;" d="
					M135.651,323.602c0,0,4.316-10.944,9.704-19.624c5.387-8.68,12.571-16.462,12.571-16.462"/>
				
					<path style="fill:none;stroke:#263238;stroke-width:1.2008;stroke-linecap:round;stroke-linejoin:round;stroke-miterlimit:10;" d="
					M147.515,367.77c0,0-1.262-10.215,3.228-18.895c4.49-8.68,9.578-20.054,11.673-24.544"/>
			</g>
			<g>
				<g>
					<path style="fill:#92E3A9;" d="M87.173,209.475c0,0-0.926-5.35,5.267-14.135c6.193-8.786,10.266-13.899,10.266-13.899
						s5.875,11.655,0.217,20.348c-5.658,8.693-14.083,17.314-14.083,17.314L87.173,209.475z"/>
					<path style="fill:#92E3A9;" d="M103.826,241.002c0,0-0.926-5.35,5.267-14.135c6.192-8.786,10.266-13.899,10.266-13.899
						s5.874,11.656,0.217,20.349c-5.658,8.693-14.083,17.315-14.083,17.315L103.826,241.002z"/>
					<path style="fill:#92E3A9;" d="M89.221,218.505c0,0-1.486-5.222-10.877-10.451c-9.391-5.23-15.279-8.07-15.279-8.07
						s-0.237,13.05,8.632,18.429c8.869,5.378,20.2,9.491,20.2,9.491L89.221,218.505z"/>
					<path style="fill:#92E3A9;" d="M109.182,255.687c0,0-2.027-5.037-11.915-9.251c-9.888-4.214-16.042-6.42-16.042-6.42
						s1.135,13.003,10.519,17.42c9.385,4.417,21.085,7.317,21.085,7.317L109.182,255.687z"/>
					<path style="fill:#92E3A9;" d="M114.16,299.131c0,0-0.926-5.35-9.712-11.542c-8.786-6.193-14.341-9.639-14.341-9.639
						s-1.615,12.952,6.636,19.237c8.251,6.285,19.084,11.572,19.084,11.572L114.16,299.131z"/>
					<path style="fill:#92E3A9;" d="M116.103,309.609c0,0-1.677-5.164,3.205-14.74c4.881-9.577,8.187-15.217,8.187-15.217
						s7.471,10.702,3.106,20.111c-4.365,9.409-11.479,19.14-11.479,19.14L116.103,309.609z"/>
					<path style="fill:#92E3A9;" d="M131.093,352.759c0,0,0.619-5.394,9.038-12.078c8.418-6.684,13.767-10.442,13.767-10.442
						s2.351,12.839-5.527,19.585c-7.878,6.746-18.392,12.643-18.392,12.643L131.093,352.759z"/>
					<path style="fill:#92E3A9;" d="M128.875,339.449c0,0-0.926-5.35-9.712-11.542c-8.785-6.193-14.341-9.639-14.341-9.639
						s-1.614,12.952,6.636,19.237c8.251,6.285,19.084,11.573,19.084,11.573L128.875,339.449z"/>
					<path style="fill:#92E3A9;" d="M128.758,368.527c0,0,0.459-5.41-6.472-13.625c-6.931-8.216-11.432-12.957-11.432-12.957
						s-4.843,12.12,1.547,20.291c6.39,8.17,15.531,16.029,15.531,16.029L128.758,368.527z"/>
				</g>
				
					<path style="fill:none;stroke:#263238;stroke-width:1.2008;stroke-linecap:round;stroke-linejoin:round;stroke-miterlimit:10;" d="
					M86.257,208.222c1.428,5.642,3.102,11.445,4.927,16.255c5.608,14.783,14.718,23.37,20.07,36.673
					c5.352,13.303-0.065,32.573,5.282,49.924c5.348,17.35,13.964,26.023,14.04,38.207c0.076,12.183-4.733,46.049-4.733,46.049"/>
				
					<line style="fill:none;stroke:#263238;stroke-width:1.2008;stroke-linecap:round;stroke-linejoin:round;stroke-miterlimit:10;" x1="89.91" y1="222.047" x2="80.768" y2="217.25"/>
				
					<line style="fill:none;stroke:#263238;stroke-width:1.2008;stroke-linecap:round;stroke-linejoin:round;stroke-miterlimit:10;" x1="88.3" y1="214.98" x2="90.639" y2="208.389"/>
				
					<path style="fill:none;stroke:#263238;stroke-width:1.2008;stroke-linecap:round;stroke-linejoin:round;stroke-miterlimit:10;" d="
					M110.696,260.593c0,0-7.634-3.898-15.456-7.764"/>
				
					<path style="fill:none;stroke:#263238;stroke-width:1.2008;stroke-linecap:round;stroke-linejoin:round;stroke-miterlimit:10;" d="
					M105.493,250.631c0,0,3.719-12.013,8.833-20.438"/>
				
					<path style="fill:none;stroke:#263238;stroke-width:1.2008;stroke-linecap:round;stroke-linejoin:round;stroke-miterlimit:10;" d="
					M115.213,306.787c0,0-7.043-9.413-17.8-16.831"/>
				
					<path style="fill:none;stroke:#263238;stroke-width:1.2008;stroke-linecap:round;stroke-linejoin:round;stroke-miterlimit:10;" d="
					M117.827,314.068c0,0,1.981-8.656,4.915-15.157c2.935-6.501,3.368-7.349,3.368-7.349"/>
				
					<path style="fill:none;stroke:#263238;stroke-width:1.2008;stroke-linecap:round;stroke-linejoin:round;stroke-miterlimit:10;" d="
					M130.162,358.522c0,0,6.06-7.429,9.832-10.207c3.772-2.78,6.385-5.552,6.385-5.552"/>
				
					<path style="fill:none;stroke:#263238;stroke-width:1.2008;stroke-linecap:round;stroke-linejoin:round;stroke-miterlimit:10;" d="
					M130.577,349.28c0,0-3.895-6.394-8.216-11.253c-4.321-4.858-9.67-8.959-9.67-8.959"/>
				
					<path style="fill:none;stroke:#263238;stroke-width:1.2008;stroke-linecap:round;stroke-linejoin:round;stroke-miterlimit:10;" d="
					M127.932,378.264c0,0-0.318-6.543-4.076-11.498c-3.758-4.956-8.183-11.536-9.985-14.124"/>
			</g>
		</g>
		<g>
			
				<path style="fill:#263238;stroke:#263238;stroke-width:1.2008;stroke-linecap:round;stroke-linejoin:round;stroke-miterlimit:10;" d="
				M163.063,476.535h-49.846c-2.168,0-3.926-1.758-3.926-3.926l-12.364-82.551h82.426l-12.364,82.551
				C166.989,474.778,165.231,476.535,163.063,476.535z"/>
		</g>
	</g>
</g>
<g id="Graphics">
	<g>
		
			<rect x="429.027" y="79.588" transform="matrix(0.7071 -0.7071 0.7071 0.7071 65.9005 335.0839)" style="fill:none;stroke:#263238;stroke-width:1.2008;stroke-linecap:round;stroke-linejoin:round;stroke-miterlimit:10;" width="16.811" height="16.811"/>
		
			<rect x="311.091" y="44.375" transform="matrix(0.7071 -0.7071 0.7071 0.7071 57.841 237.5584)" style="fill:none;stroke:#263238;stroke-width:1.2008;stroke-linecap:round;stroke-linejoin:round;stroke-miterlimit:10;" width="9.169" height="9.169"/>
		
			<rect x="582.068" y="103.839" transform="matrix(0.7071 -0.7071 0.7071 0.7071 95.1577 446.5794)" style="fill:none;stroke:#263238;stroke-width:1.2008;stroke-linecap:round;stroke-linejoin:round;stroke-miterlimit:10;" width="9.169" height="9.169"/>
		
			<path style="fill:none;stroke:#263238;stroke-width:1.2008;stroke-linecap:round;stroke-linejoin:round;stroke-miterlimit:10;" d="
			M245.311,122.815c0-2.653-2.15-4.803-4.803-4.803s-4.803,2.15-4.803,4.803c0,2.653,2.15,4.803,4.803,4.803
			S245.311,125.468,245.311,122.815z"/>
		
			<path style="fill:none;stroke:#263238;stroke-width:1.2008;stroke-linecap:round;stroke-linejoin:round;stroke-miterlimit:10;" d="
			M618.747,383.38c0-2.653-2.151-4.803-4.803-4.803s-4.803,2.15-4.803,4.803c0,2.653,2.15,4.803,4.803,4.803
			S618.747,386.033,618.747,383.38z"/>
		
			<path style="fill:none;stroke:#263238;stroke-width:1.2008;stroke-linecap:round;stroke-linejoin:round;stroke-miterlimit:10;" d="
			M502.273,140.827c0-2.653-2.15-4.803-4.803-4.803c-2.653,0-4.803,2.15-4.803,4.803c0,2.653,2.15,4.803,4.803,4.803
			C500.123,145.63,502.273,143.479,502.273,140.827z"/>
		
			<path style="fill:none;stroke:#263238;stroke-width:1.2008;stroke-linecap:round;stroke-linejoin:round;stroke-miterlimit:10;" d="
			M126.435,176.849c0-2.653-2.151-4.803-4.803-4.803c-2.653,0-4.803,2.15-4.803,4.803s2.15,4.803,4.803,4.803
			C124.285,181.652,126.435,179.502,126.435,176.849z"/>
	</g>
</g>
<g id="Device">
	<g>
		
			<path style="fill:#FFFFFF;stroke:#263238;stroke-width:1.2008;stroke-linecap:round;stroke-linejoin:round;stroke-miterlimit:10;" d="
			M603.345,454.912H150.607V173.78c0-7.034,5.702-12.736,12.736-12.736h427.267c7.034,0,12.736,5.702,12.736,12.736V454.912z"/>
		
			<rect x="222.441" y="440.765" style="fill:#263238;stroke:#263238;stroke-width:1.2008;stroke-linecap:round;stroke-linejoin:round;stroke-miterlimit:10;" width="311.145" height="15.33"/>
		
			<rect x="222.441" y="448.146" style="fill:#FFFFFF;stroke:#263238;stroke-width:1.2008;stroke-linecap:round;stroke-linejoin:round;stroke-miterlimit:10;" width="311.145" height="7.949"/>
		
			<path style="fill:#263238;stroke:#263238;stroke-width:1.2008;stroke-linecap:round;stroke-linejoin:round;stroke-miterlimit:10;" d="
			M113.994,465.18c0,0,5.11,6.246,20.44,11.355h487.158c0,0,11.356-2.839,16.466-10.788L113.994,465.18z"/>
		
			<path style="fill:#FFFFFF;stroke:#263238;stroke-width:1.2008;stroke-linecap:round;stroke-linejoin:round;stroke-miterlimit:10;" d="
			M635.3,465.932H116.815c-2.132,0-3.86-1.728-3.86-3.86v-4.219c0-2.132,1.728-3.86,3.86-3.86H635.3c2.132,0,3.86,1.728,3.86,3.86
			v4.219C639.16,464.204,637.432,465.932,635.3,465.932z"/>
		<path style="fill:#263238;" d="M380.853,169.932c0-2.195-1.779-3.974-3.974-3.974c-2.195,0-3.974,1.78-3.974,3.974
			c0,2.195,1.779,3.974,3.974,3.974C379.073,173.906,380.853,172.127,380.853,169.932z"/>
		<path style="fill:#263238;stroke:#FFFFFF;stroke-width:0.8306;stroke-linejoin:round;stroke-miterlimit:10;" d="M154.875,243.744
			L154.875,243.744c-0.627,0-1.136-0.508-1.136-1.135v-32.931c0-0.627,0.509-1.136,1.136-1.136l0,0c0.627,0,1.135,0.508,1.135,1.136
			v32.931C156.01,243.235,155.502,243.744,154.875,243.744z"/>
		<g>
			
				<rect id="XMLID_2_" x="168.973" y="184.003" style="fill:#D1D1D1;stroke:#263238;stroke-width:1.2008;stroke-linejoin:round;stroke-miterlimit:10;" width="416.005" height="235.093"/>
			<rect x="238.111" y="184.003" style="fill:#263238;" width="346.867" height="13.903"/>
		</g>
		<g>
			
				<ellipse transform="matrix(0.9239 -0.3827 0.3827 0.9239 -77.0966 89.0829)" style="fill:none;stroke:#263238;stroke-width:1.2008;stroke-linejoin:round;stroke-miterlimit:10;" cx="185.377" cy="238.337" rx="9.942" ry="9.942"/>
			
				<circle style="fill:none;stroke:#263238;stroke-width:1.2008;stroke-linejoin:round;stroke-miterlimit:10;" cx="185.377" cy="266.881" r="9.942"/>
			
				<ellipse transform="matrix(0.9239 -0.3827 0.3827 0.9239 -98.9432 93.4287)" style="fill:none;stroke:#263238;stroke-width:1.2008;stroke-linejoin:round;stroke-miterlimit:10;" cx="185.377" cy="295.425" rx="9.942" ry="9.942"/>
			
				<circle style="fill:none;stroke:#263238;stroke-width:1.2008;stroke-linejoin:round;stroke-miterlimit:10;" cx="185.377" cy="323.968" r="9.942"/>
			
				<circle style="fill:none;stroke:#263238;stroke-width:1.2008;stroke-linejoin:round;stroke-miterlimit:10;" cx="185.377" cy="352.512" r="9.942"/>
			
				<ellipse transform="matrix(0.1602 -0.9871 0.9871 0.1602 -220.4524 503.0005)" style="fill:none;stroke:#263238;stroke-width:1.2008;stroke-linejoin:round;stroke-miterlimit:10;" cx="185.377" cy="381.056" rx="9.942" ry="9.942"/>
			
				<rect x="217.769" y="205.945" style="fill:none;stroke:#263238;stroke-width:1.2008;stroke-linejoin:round;stroke-miterlimit:10;" width="341.883" height="207.182"/>
			
				<line style="fill:none;stroke:#263238;stroke-width:1.2008;stroke-linejoin:round;stroke-miterlimit:10;" x1="218.31" y1="329.73" x2="560.062" y2="329.73"/>
			<g>
				
					<line style="fill:none;stroke:#263238;stroke-width:1.2008;stroke-linejoin:round;stroke-miterlimit:10;" x1="415.39" y1="342.278" x2="532.014" y2="342.278"/>
				
					<line style="fill:none;stroke:#263238;stroke-width:1.2008;stroke-linejoin:round;stroke-miterlimit:10;" x1="415.39" y1="352.612" x2="532.014" y2="352.612"/>
				
					<line style="fill:none;stroke:#263238;stroke-width:1.2008;stroke-linejoin:round;stroke-miterlimit:10;" x1="415.39" y1="362.946" x2="532.014" y2="362.946"/>
				
					<line style="fill:none;stroke:#263238;stroke-width:1.2008;stroke-linejoin:round;stroke-miterlimit:10;" x1="415.39" y1="373.279" x2="532.014" y2="373.279"/>
				
					<line style="fill:none;stroke:#263238;stroke-width:1.2008;stroke-linejoin:round;stroke-miterlimit:10;" x1="415.39" y1="383.613" x2="532.014" y2="383.613"/>
				
					<line style="fill:none;stroke:#263238;stroke-width:1.2008;stroke-linejoin:round;stroke-miterlimit:10;" x1="415.39" y1="393.947" x2="532.014" y2="393.947"/>
			</g>
			<g>
				<g>
					
						<line style="fill:none;stroke:#263238;stroke-width:1.2008;stroke-linejoin:round;" x1="383.303" y1="211.076" x2="383.303" y2="212.277"/>
					
						<line style="fill:none;stroke:#263238;stroke-width:1.2008;stroke-linejoin:round;stroke-dasharray:2.3758,2.3758;" x1="383.303" y1="214.653" x2="383.303" y2="322.753"/>
					
						<line style="fill:none;stroke:#263238;stroke-width:1.2008;stroke-linejoin:round;" x1="383.303" y1="323.94" x2="383.303" y2="325.141"/>
				</g>
			</g>
			<g>
				<path style="fill:#FFFFFF;stroke:#263238;stroke-width:1.2008;stroke-linejoin:round;stroke-miterlimit:10;" d="
					M388.434,328.458c0-2.834-2.297-5.132-5.131-5.132c-2.834,0-5.131,2.297-5.131,5.132c0,2.834,2.297,5.131,5.131,5.131
					C386.137,333.59,388.434,331.292,388.434,328.458z"/>
				
					<line style="fill:none;stroke:#263238;stroke-width:0.6004;stroke-linejoin:round;stroke-miterlimit:10;" x1="383.227" y1="325.141" x2="383.227" y2="332.02"/>
				
					<line style="fill:none;stroke:#263238;stroke-width:0.6004;stroke-linejoin:round;stroke-miterlimit:10;" x1="386.666" y1="328.581" x2="379.787" y2="328.581"/>
			</g>
			<path style="fill:none;stroke:#263238;stroke-width:1.2008;stroke-linejoin:round;stroke-miterlimit:10;" d="M338.679,272.654
				h-80.82c-3.365,0-6.094-2.728-6.094-6.094l0,0c0-3.365,2.728-6.094,6.094-6.094h80.82c3.365,0,6.094,2.728,6.094,6.094l0,0
				C344.773,269.926,342.044,272.654,338.679,272.654z"/>
			<g>
				
					<rect x="224.877" y="340.802" style="fill:#92E3A9;stroke:#263238;stroke-width:1.2008;stroke-linejoin:round;stroke-miterlimit:10;" width="80.853" height="57.752"/>
				
					<line style="fill:none;stroke:#263238;stroke-width:1.2008;stroke-linejoin:round;stroke-miterlimit:10;" x1="224.877" y1="398.554" x2="305.731" y2="340.802"/>
				
					<line style="fill:none;stroke:#263238;stroke-width:1.2008;stroke-linejoin:round;stroke-miterlimit:10;" x1="224.877" y1="340.802" x2="305.731" y2="398.554"/>
			</g>
			<g>
				
					<rect x="317.143" y="340.802" style="fill:#92E3A9;stroke:#263238;stroke-width:1.2008;stroke-linejoin:round;stroke-miterlimit:10;" width="80.853" height="57.752"/>
				
					<line style="fill:none;stroke:#263238;stroke-width:1.2008;stroke-linejoin:round;stroke-miterlimit:10;" x1="317.143" y1="398.554" x2="397.996" y2="340.802"/>
				
					<line style="fill:none;stroke:#263238;stroke-width:1.2008;stroke-linejoin:round;stroke-miterlimit:10;" x1="317.143" y1="340.802" x2="397.996" y2="398.554"/>
			</g>
			
				<line style="fill:none;stroke:#263238;stroke-width:1.2008;stroke-linejoin:round;stroke-miterlimit:10;" x1="195.319" y1="295.425" x2="217.179" y2="295.425"/>
		</g>
	</g>
</g>
<g id="Character">
	<g>
		<g>
			
				<rect x="390.956" y="213.001" style="fill:#92E3A9;stroke:#263238;stroke-width:1.2008;stroke-linejoin:round;stroke-miterlimit:10;" width="148.171" height="105.836"/>
			
				<line style="fill:none;stroke:#263238;stroke-width:1.2008;stroke-linejoin:round;stroke-miterlimit:10;" x1="390.956" y1="318.837" x2="539.126" y2="213.001"/>
			
				<line style="fill:none;stroke:#263238;stroke-width:1.2008;stroke-linejoin:round;stroke-miterlimit:10;" x1="390.956" y1="213.001" x2="539.126" y2="318.837"/>
		</g>
		<g>
			<g>
				
					<path style="fill:#FFFFFF;stroke:#263238;stroke-width:1.2008;stroke-linecap:round;stroke-linejoin:round;stroke-miterlimit:10;" d="
					M523.378,267.622c0,0,2,2.772,3.542,5.604c1.541,2.832,2.043,4.868,2.043,4.868s0.628-0.55,3.967-3.559
					c3.34-3.009,3.665-5.854,3.665-5.854l-3.191-4.717C533.405,263.964,525.389,263.387,523.378,267.622z"/>
				<g>
					
						<path style="fill:#FFFFFF;stroke:#263238;stroke-width:1.2008;stroke-linecap:round;stroke-linejoin:round;stroke-miterlimit:10;" d="
						M520.138,249.993c0,0-1.089,3.153-2.075,3.283c-0.986,0.13-3.925-1.238-3.6,1.227c0.325,2.465,2.278,3.963,2.278,3.963
						s-0.685,8.115-0.276,9.315c0.409,1.2,1.032,2.121,3.99,1.731c2.958-0.39,5.423-0.715,5.423-0.715s0.772,0.149,2.037,0.233
						c1.265,0.084,1.242,0.22,3.415-2.324c2.172-2.544,3.506-0.345,2.953-4.535c-0.553-4.19-1.157-6.869-3.487-9.321
						C528.467,250.4,520.138,249.993,520.138,249.993z"/>
					<path style="fill:#263238;" d="M518.99,255.007c-0.27,0.92-0.289,1.725-0.044,1.796c0.245,0.072,0.663-0.616,0.933-1.536
						c0.27-0.92,0.289-1.725,0.044-1.797C519.677,253.398,519.26,254.086,518.99,255.007z"/>
				</g>
			</g>
			
				<path style="fill:#FFFFFF;stroke:#263238;stroke-width:1.2008;stroke-linecap:round;stroke-linejoin:round;stroke-miterlimit:10;" d="
				M545.853,236.185l-17.029-12.847c0,0-2.689-1.195-2.689-3.585c0-2.39-0.299-3.286,0-5.676c0.299-2.39,0-3.585,1.195-3.585
				s1.494,2.689,1.494,2.689l0.896-2.988c0,0,2.091-0.598,2.39,0.896c0.299,1.494,2.689,2.39,2.091,4.481
				c-0.597,2.091-2.689,5.079-2.689,5.079s15.834,6.871,18.822,7.768c2.988,0.896,8.468,3.434,7.87,6.421
				c-0.598,2.988-3.544,11.939-3.544,11.939L545.853,236.185z"/>
			
				<path style="fill:#FFFFFF;stroke:#263238;stroke-width:1.2008;stroke-linecap:round;stroke-linejoin:round;stroke-miterlimit:10;" d="
				M529.73,276.825c0,0-4.163,2.863-9.004,6.441c-6.009,4.441-6.099,14.745-6.525,15.786c-0.706,1.728,18.938,23.094,21.748,26.693
				c2.81,3.599,3.32,9.408,3.32,9.408l26.61-5.766c0,0-13.32-46.497-14.003-49.91c-0.684-3.413-1.816-7.849-1.816-7.849
				s1.838-10.508,4.221-18.995c2.383-8.488,3.348-13.924,3.166-15.302c-0.182-1.377-7.525-2.169-10.57-2.234
				c-3.044-0.065-2.754,0.363-2.754,0.363s-6.615,15.351-6.984,16.1C536.771,252.311,529.73,276.825,529.73,276.825z"/>
			
				<polygon style="fill:#263238;stroke:#263238;stroke-width:1.2008;stroke-linecap:round;stroke-linejoin:round;stroke-miterlimit:10;" points="
				539.269,335.154 537.939,348.459 521.529,391.478 517.981,441.594 524.634,442.038 537.495,393.253 554.792,361.32 
				562.775,390.591 587.411,439.144 593.709,435.423 578.297,385.713 569.427,334.71 565.88,329.388 			"/>
			
				<path style="fill:#FFFFFF;stroke:#263238;stroke-width:1.2008;stroke-linecap:round;stroke-linejoin:round;stroke-miterlimit:10;" d="
				M534.638,268.004c0,0-1.763,2.568-3.188,4.157c-1.425,1.589-3.461,2.091-3.998,3.329c-0.537,1.238-3.259,5.242-3.259,5.242
				s6.588-1.244,9.958-4.024c3.37-2.78,4.51-8.301,4.51-8.301S536.154,267.104,534.638,268.004z"/>
			
				<path style="fill:#FFFFFF;stroke:#263238;stroke-width:1.2008;stroke-linecap:round;stroke-linejoin:round;stroke-miterlimit:10;" d="
				M500.221,322.223c0,0-26.052-8.245-28.573-9.435c-2.521-1.19-4.923-0.92-7.266,0.08c-2.342,1-4.682,0.236-4.744,1.269
				c-0.062,1.033,1.456,1.644,2.308,1.28c0.852-0.363,3.345-0.42,3.345-0.42l-10.008,4.271c0,0-0.216,1.854,1.122,2.039
				c1.337,0.184,3.251,1.13,5.227,1.042c1.976-0.088,10.497-5.486,10.497-5.486s6.798,3.234,13.246,7.59
				c6.449,4.357,16.453,9.049,19.777,8.485c3.323-0.564,7.227-5.946,6.735-8.208C509.781,315.048,500.221,322.223,500.221,322.223z"
				/>
			
				<path style="fill:#FFFFFF;stroke:#263238;stroke-width:1.2008;stroke-linecap:round;stroke-linejoin:round;stroke-miterlimit:10;" d="
				M532.94,301.155c0,0-7.773,10.042-11.987,15.268c-4.214,5.226-8.479,14.435-12.013,14.2c-3.534-0.234-7.868-7.283-7.651-9.18
				c0.217-1.897,5.042-6.036,7.806-13.406c2.057-5.484,5.678-14.796,7.396-19.202c0.626-1.605,0.76-2.842,2.131-3.885l2.105-1.684"
				/>
			
				<path style="fill:#FFFFFF;stroke:#263238;stroke-width:1.2008;stroke-linecap:round;stroke-linejoin:round;stroke-miterlimit:10;" d="
				M501.288,321.444c0.124-1.089,1.768-2.921,3.667-5.673c0.736,1.285,2.329,4.465,4.451,5.998c1.954,1.412,5.008,2.616,6.289,3.103
				c-3.331,4.089-4.83,5.88-6.756,5.752C505.406,330.389,501.071,323.34,501.288,321.444z"/>
			
				<path style="fill:#FFFFFF;stroke:#263238;stroke-width:1.2008;stroke-linecap:round;stroke-linejoin:round;stroke-miterlimit:10;" d="
				M541.907,240.596c1.23-2.849,2.216-5.135,2.216-5.135s-0.29-0.429,2.754-0.363c3.045,0.066,11.519,0.975,11.701,2.352
				c0.111,0.839,0.187,4.664-1.865,7.835C554.347,243.359,547.106,239.963,541.907,240.596z"/>
			
				<path style="fill:none;stroke:#263238;stroke-width:1.2008;stroke-linecap:round;stroke-linejoin:round;stroke-miterlimit:10;" d="
				M527.26,308.887c0,0,4.393-3.298,10.968-5.305"/>
			<g>
				
					<path style="fill:#263238;stroke:#263238;stroke-width:1.2008;stroke-linecap:round;stroke-linejoin:round;stroke-miterlimit:10;" d="
					M526.076,256.985c0,0-10.816-7.852-7.471-14.814c3.345-6.962,8.294-9.37,12.842-7.211c4.548,2.159,3.115,4.605,3.115,4.605
					s4.995-0.157,6.748,3.624c1.753,3.781-0.633,6.604-0.633,6.604s2.706,3.405,2.584,8.186
					c-0.122,4.781-8.494,11.653-10.187,12.127c-1.693,0.474-3.037-2.107-3.037-2.107s2.438-4.334,1.354-4.944
					c-1.084-0.609-3.781,1.753-3.781,1.753s-1.349,1.181-1.739-1.777C525.48,260.072,526.076,256.985,526.076,256.985z"/>
			</g>
			
				<path style="fill:#FFFFFF;stroke:#263238;stroke-width:1.2008;stroke-linecap:round;stroke-linejoin:round;stroke-miterlimit:10;" d="
				M517.981,441.594c0,0-4.99,4.879-9.869,6.209c-4.879,1.331-7.167,2.661-7.167,2.661l-1.104,1.925
				c-0.414,0.723,0.107,1.623,0.94,1.623h24.296c0,0,0.443-1.774,0.443-5.766c0-3.992-0.887-6.209-0.887-6.209L517.981,441.594z"/>
			
				<path style="fill:#FFFFFF;stroke:#263238;stroke-width:1.2008;stroke-linecap:round;stroke-linejoin:round;stroke-miterlimit:10;" d="
				M587.411,439.144l-0.357,3.702c0,0-1.536,3.839-3.839,5.375s-5.119,1.536-5.119,3.071c0,1.536,0,2.816,0,2.816h9.47
				c0,0,2.048,0.256,4.863-2.304c2.815-2.56,3.327-4.863,5.375-6.143c2.048-1.28,2.048-3.072,1.024-5.887
				c-1.024-2.816-5.119-4.351-5.119-4.351L587.411,439.144z"/>
		</g>
	</g>
</g>
</svg>
